<?xml version="1.0" encoding="utf-8"?>
<!-- Generator: Adobe Illustrator 19.0.0, SVG Export Plug-In . SVG Version: 6.00 Build 0)  -->
<!DOCTYPE svg PUBLIC "-//W3C//DTD SVG 1.1//EN" "http://www.w3.org/Graphics/SVG/1.1/DTD/svg11.dtd">
<svg version="1.1" xmlns="http://www.w3.org/2000/svg" xmlns:xlink="http://www.w3.org/1999/xlink" x="0px" y="0px"
	 viewBox="0 0 609.4 153.1" enable-background="new 0 0 609.4 153.1" xml:space="preserve">
<g id="Слой_1">
	<g id="v96Ohh.tif">
		<g id="XMLID_2_">
			<path id="XMLID_30_" fill="#FFFFFF" d="M1.1,143.4c0-0.7,0-1.3,0-2c1.8-3.5,3.8-6.9,5.5-10.4c3-6.3,5.7-12.7,8.8-19
				c4.1-8.1,8.5-16,12.7-24c3-5.7,5.9-11.4,9-16.9c2.8-5,5.9-9.8,8.8-14.7c3.4-5.9,6.7-11.8,10.2-17.6c2.7-4.5,5.8-8.7,8.4-13.2
				c4-6.7,7.7-13.4,11.5-20.2c0.7,0,1.3,0,2,0c1.8,3.1,3.7,6.2,5.3,9.4c3.7,7.1,7.1,14.3,10.8,21.4c3.4,6.6,7.1,13,10.5,19.6
				c3,5.9,5.7,11.9,8.4,17.9c2,4.5,4,9.1,5.8,13.7c2.1,5.3,3.9,10.6,5.9,15.9c1.7,4.6,3.6,9.2,5.4,13.8c2,4.9,3.9,9.9,5.9,14.8
				c1.1,2.8,2.4,5.6,3.6,8.4c0,1,0,2,0,3c-5.5,0.2-11.1,0.3-16.6,0.5c-3.5,0.1-6.9,0.3-10.4,0.5c-2.7,0-5.3,0-8,0
				c-2.7-6.3-5.4-12.7-8.1-19c-0.3-0.7-1.2-1.4-1.9-1.6c-1.4-0.3-3-0.5-4.4-0.4c-8.8,0-17.7,0.1-26.5,0.2c-3.9,0-7.8,0-11.7,0.3
				c-1.1,0.1-2.7,0.9-3.2,1.9c-2.5,4.8-4.6,9.7-7,14.5c-0.4,0.8-1,1.7-1.8,1.9c-2,0.6-4.2,1-6.3,1.1c-7.7,0.3-15.5,0.5-23.2,0.6
				C7.3,144,4.2,143.6,1.1,143.4z M62.3,99.6c1.9,0.4,2.8,0.8,3.8,0.8c5.3,0.1,10.6,0.2,15.9,0.2c3.5,0,3.8-0.8,2.3-4
				c-2.8-5.8-5.4-11.6-8.2-17.4c-0.5-1-1-1.9-1.5-2.8c-0.3,0-0.6,0-0.9-0.1C70,84,66.2,91.6,62.3,99.6z"/>
		</g>
	</g>
	<g id="uMPDBH.tif">
		<g id="XMLID_4_">
			<path id="XMLID_15_" fill="#FFFFFF" d="M450.6,7.7c0.8-0.1,1.6-0.3,2.5-0.3c13.9-0.1,27.8-0.2,41.7-0.2c0.7,0,1.5,0.1,2.2-0.1
				c5.8-1.3,9.3,1.5,12.6,6.1c3.9,5.4,8.5,10.1,12.8,15.2c1,1.2,1.9,1.5,3,0.1c4.3-5.6,8.8-11,12.8-16.8c2.1-3,4.3-4.4,8-4.3
				c12.8,0.3,25.6,0.3,38.4,0.5c1.5,0,3,0.1,4.5,0.3c0.8,0.1,2,0.3,2.1,0.8c0.2,0.7,0,1.8-0.5,2.5c-1.8,2.7-3.8,5.2-5.8,7.8
				c-9,12.1-17.8,24.2-26.9,36.2c-3.4,4.5-7,8.8-10.6,13.1c-1.8,2.3-2.7,4.8-2.6,7.8c0.1,22.9,0.2,45.8,0.2,68.7
				c0,3.4,0,3.4-3.4,3.6c-9.2,0.4-18.4,0.9-27.7,1c-3.7,0-7.4-0.7-11.1-1.3c-0.6-0.1-1.5-1.3-1.5-2c-1.8-20.1-2.2-40.2-2-60.4
				c0-3.1,0-6.2,0.1-9.2c0.1-2.3-0.7-4-2.1-5.9c-8.3-11-16.4-22.3-24.8-33.3c-6.9-9.1-14-17.9-21.1-26.9c-0.2-0.3-0.6-0.5-0.9-0.8
				C450.6,9,450.6,8.4,450.6,7.7z"/>
		</g>
	</g>
</g>
<g id="Слой_2">
	<g id="XMLID_21_">
		<path id="XMLID_22_" fill="#FFFFFF" d="M253.6,1.3c-5.1-1-15.5-1.6-20.6-2c-1-0.1-1.9-0.1-2.9-0.1c-14.8,0-29.7,0-44.5,0
			c-5.4,0.1-10.9,0.3-16.3,0.3c-1.9,0-3.8-0.2-5.7-0.3c-0.3,0-0.7,0-1,0c-1.4,0.2-2.7,0.5-4.1,0.5c-2,0.1-2.7,1-2.7,3
			c0,30.5,0,61,0,91.5c0,9.9,0.4,19.8,0.5,29.7c0,4.1-0.4,8.1-0.4,12.2c0,3.9,0.4,7.8,0.6,11.7c0.1,1.9,1.3,2.7,3,2.7
			c2.4,0,4.8-0.2,7.2-0.2c8.2,0.1,16.5,0.2,24.7,0.3c0.9,0,1.8,0,2.7-0.2c2.5-0.5,3-1.3,2.5-3.8c-0.3-1.2-0.5-2.5-0.5-3.7
			c0-9.7,0-19.5,0.1-29.2c0-2,0.5-3.9,0.9-5.8c0.4-1.5,1.3-2.3,3.1-2.3c10.2,0,20.3-0.2,30.5-0.2l7.5-0.3c29.3,0,53-23.7,53-53
			C291.2,28.1,275.9,5.7,253.6,1.3z M267.5,80.8c-1.5,0.7-3.3,0.6-5.2-0.5c0,0,0,0,0,0c-0.4-0.1-0.8-0.3-1.1-0.6
			c-5.9-5-4-13,0.4-18.3c5.1-6.1,12.7-8.5,19.5-3.6c5.8,4.1,5.9,11.4,1.9,16.9C280,78.7,272.6,82.6,267.5,80.8z"/>
	</g>
	<g id="XMLID_17_">
		<path id="XMLID_18_" fill="#FFFFFF" d="M413,3.3c-5.1-1-15.5-1.6-20.6-2c-1-0.1-1.9-0.1-2.9-0.1c-14.8,0-29.7,0-44.5,0
			c-5.4,0.1-10.9,0.3-16.3,0.3c-1.9,0-3.8-0.2-5.7-0.3c-0.3,0-0.7,0-1,0c-1.4,0.2-2.7,0.5-4.1,0.5c-2,0.1-2.7,1-2.7,3
			c0,30.5,0,61,0,91.5c0,9.9,0.4,19.8,0.5,29.7c0,4.1-0.4,8.1-0.4,12.2c0,3.9,0.4,7.8,0.6,11.7c0.1,1.9,1.3,2.7,3,2.7
			c2.4,0,4.8-0.2,7.2-0.2c8.2,0.1,16.5,0.2,24.7,0.3c0.9,0,1.8,0,2.7-0.2c2.5-0.5,3-1.3,2.5-3.8c-0.3-1.2-0.5-2.5-0.5-3.7
			c0-9.7,0-19.5,0.1-29.2c0-2,0.5-3.9,0.9-5.8c0.4-1.5,1.3-2.3,3.1-2.3c10.2,0,20.3-0.2,30.5-0.2l7.5-0.3c29.3,0,53-23.7,53-53
			C450.6,30.1,435.3,7.7,413,3.3z M432.3,78.9c-2.9,7.6-9.6,14-18.3,13c-1-0.1-2.1-0.6-2.4-1.7c0,0,0,0,0-0.1
			c-0.4-0.2-0.8-0.4-1.2-0.7c-0.8-0.3-1.5-0.9-2-1.8c-1.8-3.3,0.1-7.5,2.2-10.1c2.7-3.2,16.4-17.8,20.5-8.9c0,0,0,0,0,0.1
			c0.5,0.3,0.9,0.8,1.1,1.5c0.1,0.7,0.2,1.4,0.3,2.1C433.4,74.4,433.1,76.7,432.3,78.9z"/>
	</g>
	<path id="XMLID_6_" fill="#FFFFFF" d="M599.7,121.2c-4.3-2.2-8.7-5-13.7-4.2c-4.1,0.6-7.7,3.4-9.8,6.9c-2.6,4.4-2.5,9.5-2.2,14.5
		c0.2,4.7,0.8,8.6,4.6,11.7c0.4,0.3,0.8,0.5,1.3,0.6c0,0,0,0,0.1,0.1c2.2,1.3,4.2,1.4,6,0.6c0.6,0.2,1.2,0.4,1.8,0.5
		c3.4,0.6,7.6-1.2,10.6-2.5c4-1.8,7.2-4.5,9-8.5C611.1,132,607.9,125.4,599.7,121.2z M578.8,133.9c0.1-4.8,1.8-10.4,7-11.8
		c3.1-0.8,6.8,0.8,9.9,2.5c-0.7,0-1.4,0.3-1.8,0.8c-4.6-1-10.1,1.9-12.1,6.2c-0.1,0.1-0.1,0.3-0.2,0.5c-0.3,0.4-0.6,0.7-0.9,1.2
		c-1,1.5-1.7,3.3-1.9,5.1C578.7,136.8,578.8,135.3,578.8,133.9z"/>
</g>
</svg>
