<?xml version="1.0" encoding="utf-8"?>
<!-- Generator: Adobe Illustrator 19.0.0, SVG Export Plug-In . SVG Version: 6.00 Build 0)  -->
<!DOCTYPE svg PUBLIC "-//W3C//DTD SVG 1.1//EN" "http://www.w3.org/Graphics/SVG/1.1/DTD/svg11.dtd">
<svg version="1.1" id="Слой_1" xmlns="http://www.w3.org/2000/svg" xmlns:xlink="http://www.w3.org/1999/xlink" x="0px" y="0px"
	 viewBox="363 -86.6 765.4 212.6" style="enable-background:new 363 -86.6 765.4 212.6;" xml:space="preserve">
<style type="text/css">
	.st0{display:none;}
	.st1{display:inline;}
	.st2{display:inline;fill:#201600;}
	.st3{display:inline;fill:#D45665;}
	.st4{display:inline;fill:#DA775D;}
	.st5{display:inline;fill:#DFCD55;}
	.st6{display:inline;fill:#52B2AF;}
	.st7{display:inline;fill:#53AE8D;}
	.st8{display:none;fill:#D45665;}
	.st9{fill:#ED475E;}
	.st10{fill:#F4594E;}
	.st11{fill:#FDC243;}
	.st12{fill:#3BE29F;}
	.st13{fill:#1FBAD9;}
</style>
<g id="Слой_2">
</g>
<g id="Слой_3" class="st0">
	<path id="XMLID_210_" class="st1" d="M1125.7,74c14-0.1,25.7,10.8,25.9,24.2c0.2,14-11.9,26.4-25.6,26.1
		c-13.5-0.2-25.4-12.1-25.4-25.4C1100.5,85.4,1111.9,74.1,1125.7,74z"/>
	<path id="XMLID_211_" class="st1" d="M922.7-79.6c17.9,0,33.9-0.3,49.9,0.3c2.9,0.1,6.5,3.8,8.4,6.8c10.5,16,20.6,32.3,32.1,50.6
		c6.4-9.6,11.3-17.6,17.2-26.3c15.3-26.7,27.8-34.3,56-33c5.5,0.3,10.3-0.1,18.3,0.9c-7.1,11.8-12.2,22.5-18.3,32.3
		c-14.7,23.6-29.7,47-44.1,70.7c-2.6,4.3-4.2,9.9-4.3,14.9c-0.4,24.7-0.5,49.4-0.1,74c0.1,7.5-2.1,10.3-9.7,9.9c-10-0.5-20-0.4-30,0
		c-6.9,0.3-9.3-2-9.2-9.2c0.4-24.3,0.6-48.7-0.1-73c-0.2-6.7-2.3-14.1-5.7-19.8c-18.9-31-38.4-61.6-57.7-92.4
		C924.5-74.1,924.1-75.9,922.7-79.6z"/>
	<path id="XMLID_218_" class="st1" d="M783-81.3c32.4,1.8,63.6,1.5,94.1,5.6c31.2,4.2,50.8,33.9,48.6,65.4
		c-2.8,40.1-29.6,60.3-70.3,62.2c-23.5,1.1-23.5,1-23.5,24.2c0,12.2-0.3,24.3,0.1,36.5c0.2,6.4-1.8,9.2-8.5,9
		c-11.1-0.3-22.2,0.3-33.2-0.4c-2.6-0.2-7-4.1-7-6.3C783,50.6,783-13.7,783-81.3z M847.5-37.4c-15.6-0.1-15.6-0.1-15.6,15.5
		c0,8.9-0.1,17.8,0.1,26.7c0.1,2.3,0.4,5.5,1.9,6.8c10.5,8.7,40.5-4,43-17.9C880.5-26.6,870.5-37.3,847.5-37.4z"/>
	<path id="XMLID_215_" class="st1" d="M615.5-81.3c32.5,1.8,63.6,1.5,94.2,5.6c31.1,4.2,50.7,34,48.5,65.4
		c-2.8,40.1-29.6,60.2-70.4,62.2c-23.4,1.1-23.5,0.9-23.5,24.3c0,12.5-0.2,25,0.1,37.5c0.1,5.5-1.9,7.8-7.4,7.8
		c-11.4-0.2-22.9,0.3-34.3-0.3c-2.5-0.2-6.9-4.1-6.9-6.4C615.4,50.6,615.5-13.7,615.5-81.3z M664.4-12.7c0,28,1.9,29.7,25.7,24.2
		c15.4-3.6,21.8-13.5,19.5-30.1c-2-14-15.3-21.2-37.7-18.5c-14.9,1.8-8.2,14.4-7.5,21.3C664.5-14.9,664.4-13.8,664.4-12.7z"/>
	<path id="XMLID_212_" class="st1" d="M598.2,121.5c-16.9,0-32.2,0.5-47.4-0.4c-3.1-0.2-7.4-5.5-8.4-9.2c-2.9-11.2-8-16.5-20.7-15.2
		c-14.2,1.5-28.7,1.3-42.9,0c-12.1-1.1-19.4,3.3-22.2,14.5c-2.2,8.8-7.5,10.8-15.7,10.5c-13.1-0.5-26.3-0.1-41.3-0.1
		C434,53,467.6-14,501.2-80.9c1.1-0.1,2.2-0.2,3.3-0.3C535.5-14.5,566.3,52.2,598.2,121.5z M521.5,61.3c-7-16.4-13.1-30.8-20.3-47.6
		c-7.6,17.3-14,31.8-21,47.6C494.9,61.3,507.2,61.3,521.5,61.3z"/>
</g>
<g id="Слой_5" class="st0">
	<path id="XMLID_37_" class="st2" d="M1129.6,72.2c14-0.1,25.7,10.8,25.9,24.2c0.2,14-11.9,26.4-25.6,26.1
		c-13.5-0.2-25.4-12.1-25.4-25.4C1104.3,83.6,1115.7,72.3,1129.6,72.2z"/>
	<path id="XMLID_36_" class="st2" d="M926.6-81.3c17.9,0,33.9-0.3,49.9,0.3c2.9,0.1,6.5,3.8,8.4,6.8c10.5,16,20.6,32.3,32.1,50.6
		c6.4-9.6,11.3-17.6,17.2-26.3c15.3-26.7,27.8-34.3,56-33c5.5,0.3,10.3-0.1,18.3,0.9c-7.1,11.8-12.2,22.5-18.3,32.3
		c-14.7,23.6-29.7,47-44.1,70.7c-2.6,4.3-4.2,9.9-4.3,14.9c-0.4,24.7-0.5,49.4-0.1,74c0.1,7.5-2.1,10.3-9.7,9.9c-10-0.5-20-0.4-30,0
		c-6.9,0.3-9.3-2-9.2-9.2c0.4-24.3,0.6-48.7-0.1-73c-0.2-6.7-2.3-14.1-5.7-19.8c-18.9-31-38.4-61.6-57.7-92.4
		C928.3-75.9,928-77.6,926.6-81.3z"/>
	<path id="XMLID_21_" class="st2" d="M602.1,119.7c-16.9,0-32.2,0.5-47.4-0.4c-3.1-0.2-7.4-5.5-8.4-9.2c-2.9-11.2-8-16.5-20.7-15.2
		c-14.2,1.5-28.7,1.3-42.9,0c-12.1-1.1-19.4,3.3-22.2,14.5c-2.2,8.8-7.5,10.8-15.7,10.5c-13.1-0.5-26.3-0.1-41.3-0.1
		C438,51.2,471.6-15.8,505.2-82.8c1.1-0.1,2.2-0.2,3.3-0.3C539.3-16.3,570.1,50.5,602.1,119.7z M525.4,59.5
		c-7-16.4-13.1-30.8-20.3-47.6c-7.6,17.3-14,31.8-21,47.6C498.7,59.5,511,59.5,525.4,59.5z"/>
</g>
<g id="Слой_1_1_" class="st0">
	<path id="XMLID_6_" class="st3" d="M1200.8,85.2c-5.9-3-12-6.9-19-5.8c-5.7,0.8-10.6,4.6-13.5,9.6c-3.6,6.1-3.4,13.1-3.1,20
		c0.3,6.4,1.1,11.9,6.3,16.2c0.6,0.5,1.2,0.7,1.8,0.8l0.1,0.1c3,1.8,5.8,1.9,8.2,0.9c0.8,0.3,1.6,0.5,2.5,0.7
		c4.6,0.9,10.4-1.7,14.6-3.5c5.5-2.4,9.9-6.2,12.4-11.7C1216.5,100.2,1212.1,91,1200.8,85.2z M1172,102.7c0.2-6.6,2.4-14.3,9.7-16.3
		c4.3-1.2,9.4,1.1,13.7,3.5c-1-0.1-1.9,0.4-2.5,1.1c-6.4-1.4-13.9,2.6-16.7,8.6c-0.1,0.2-0.2,0.4-0.3,0.6c-0.5,0.5-0.9,1-1.3,1.6
		c-1.4,2.1-2.3,4.6-2.6,7.1C1171.8,106.8,1171.9,104.7,1172,102.7z"/>
	<path id="XMLID_15_" class="st4" d="M1003.4-69.9c1.1-0.2,2.3-0.4,3.4-0.4c19.2-0.1,38.3-0.2,57.5-0.3c1,0,2.1,0.1,3.1-0.1
		c8-1.8,12.8,2.1,17.3,8.4c5.3,7.4,11.8,14,17.7,20.9c1.4,1.6,2.7,2,4.2,0.1c5.9-7.7,12.1-15.2,17.6-23.2c2.9-4.2,6-6.1,11-6
		c17.7,0.4,35.3,0.5,53,0.7c2.1,0,4.1,0.1,6.2,0.4c1.1,0.1,2.7,0.5,2.9,1.1c0.3,1-0.1,2.5-0.7,3.4c-2.5,3.7-5.3,7.2-8,10.8
		c-12.3,16.6-24.6,33.4-37.1,49.9c-4.7,6.2-9.7,12.1-14.6,18.1c-2.5,3.2-3.7,6.7-3.6,10.8c0.2,31.6,0.2,64.4,0.3,96
		c0,4.7,0,7.1-4.7,7.2c-12.7,0.5-25.5,2-38.2,2.2c-5.1,0.1-10.2-1-15.3-1.8c-0.9-0.1-2-1.8-2.1-2.8c-2.5-27.7,0.3-60.1-1.6-87.5
		c0-4.2-0.3-8.8-1-12.8c-0.5-3.1-1-5.6-2.9-8.1c-11.5-15.2-22.6-30.8-34.1-46c-9.5-12.5-19.4-24.7-29.1-37c-0.3-0.4-0.8-0.7-1.3-1.1
		C1003.4-68.1,1003.4-69,1003.4-69.9z"/>
	<path id="XMLID_16_" class="st5" d="M951.5-75.9c-7-1.4-21.3-2.3-28.5-2.8c-1.3-0.1-2.6-0.1-4-0.2c-20.5,0-40.9,0-61.4,0
		c-7.5,0.2-15,0.4-22.5,0.5c-2.6,0-5.2-0.3-7.8-0.5c-0.5,0-0.9,0-1.4,0c-1.9,0.3-3.8,0.6-5.7,0.7c-2.7,0.2-3.8,1.4-3.7,4.2
		c0,42.1-0.1,84.1,0,126.2c0,13.7,0.6,27.3,0.7,40.9c0,5.6-0.6,11.2-0.6,16.9c0,5.4,0.6,10.8,0.9,16.1c0.2,2.6,1.8,3.7,4.1,3.7
		c3.3,0,6.7-0.3,10-0.2c11.4,0.1,22.7,0.3,34.1,0.4c1.3,0,2.5,0,3.8-0.2c3.5-0.6,4.2-1.8,3.4-5.3c-0.4-1.7-0.7-3.4-0.7-5.1
		c0-13.4,0-26.9,0.1-40.3c0-2.7,0.7-5.4,1.3-8c0.5-2.1,1.8-3.1,4.2-3.2c14,0,28-0.3,42-0.3l10.4-0.5c40.4,0,64.9-35.6,73.1-73.1
		C1010.5-38.2,982.3-69.8,951.5-75.9z M978.1,28.3c-4,10.5-13.3,19.2-25.2,18c-1.3-0.1-2.9-0.9-3.3-2.3v-0.1
		c-0.6-0.3-1.1-0.6-1.6-0.9c-1.1-0.5-2.1-1.3-2.8-2.5c-2.4-4.6,0.1-10.4,3.1-14C952,22,970.9,2,976.6,14.2v0.1
		c0.7,0.4,1.3,1.1,1.5,2.1s0.3,2,0.4,2.9C979.7,22.1,979.3,25.3,978.1,28.3z"/>
	<path id="XMLID_22_" class="st6" d="M744.1-78.7c-7-1.4-21.3-2.3-28.5-2.8c-1.3-0.1-2.6-0.1-3.9-0.1c-20.5,0-38.2,0-58.6,0
		c-7.5,0.2-15,0.4-22.5,0.5c-2.6,0-5.2-0.3-7.8-0.5c-0.5,0-0.9,0-1.4,0c-1.9,0.3-3.8,0.6-5.7,0.7c-2.7,0.2-3.8,1.4-3.7,4.2
		c0,42.1-0.1,84.1,0,126.2c0,13.7,0.6,27.3,0.7,40.9c0,5.6-0.6,11.2-0.6,16.9c0,5.4-4.7,16.5-0.9,16.6c2.8,0,3.5,3.2,5.9,3.2
		c3.3,0,6.7-0.3,10-0.2c11.4,0.1,20,0.3,31.4,0.4c1.3,0,2.5,0,3.8-0.2c3.5-0.6,4.2-1.8,3.4-5.3c-0.4-1.7-0.7-3.4-0.7-5.1
		c0-13.4,0-26.9,0.1-40.3c0-2.7,0.7-5.4,1.3-8c0.5-2.1,1.8-3.1,4.2-3.2c14,0,28-0.3,42-0.3l10.4-0.5c40.4,0,67.8-33.1,73.1-73.1
		C800.1-39.5,774.9-72.6,744.1-78.7z M755.6,30.9c-2.1,0.9-4.5,0.9-7.1-0.7h7.6c-0.5-0.1-8.7-0.3-9.2-0.8c-8.2-6.8-5.5-18,0.6-25.2
		c7-8.4,17.5-11.8,27-5c7.9,5.7,8.2,15.7,2.6,23.3C773,28,762.7,33.3,755.6,30.9z"/>
	<path id="XMLID_30_" class="st7" d="M398.3,121.7c0-0.9,0-1.8,0-2.8c2.5-4.8,9.7-13.9,12-18.8c4.2-8.7,9.8-15.6,14.1-24.2
		c5.6-11.1,12.4-21.4,18.3-32.4c4.1-7.8,8.2-15.7,12.5-23.4c3.9-6.9,8.1-13.5,12.1-20.3c4.7-8.1,9.2-16.3,14-24.3
		c3.7-6.2,5.3-14.6,9-20.8c5.5-9.2,10.6-18.5,15.9-27.8c0.9,0,1.8,0,2.8,0c2.5,4.3,5.1,8.6,7.3,13c5,9.8,9.8,19.8,14.9,29.6
		c4.7,9.1,8.5,20,13.1,29.1c4.1,8.1,7.8,17.9,11.5,26.2c2.8,6.2,4,10.4,6.4,16.7c2.8,7.3,6.9,15.6,9.7,22.9
		c2.4,6.4,6.3,10.5,8.8,16.8c2.7,6.8,5.4,13.6,8.2,20.4c1.6,3.9,7.8,17.5,9.4,21.4c0,1.4-4.5-0.7-4.5,0.7
		c-7.6,0.2-15.3,0.4-22.9,0.7c-4.8,0.2-9.6,0.5-14.3,0.7c-3.7,0-7.4,0-11,0c-3.7-8.7-7.4-23.9-11.2-32.6c-0.4-1-1.6-1.9-2.7-2.2
		c-2-0.5-4.1-0.6-6.1-0.6c-12.2,0-24.3,0.1-36.5,0.2c-5.4,0.1-10.8,0-16.2,0.4c-1.6,0.1-3.7,1.3-4.4,2.6c-3.4,6.6-10.8,17.8-14,24.5
		c-0.5,1.1-1.4,2.4-2.4,2.6c-2.8,0.8-5.7,1.4-8.6,1.6c-10.7,0.4-21.3,0.7-32,0.8C406.9,122.5,402.6,122,398.3,121.7z M487.1,56.9
		c2.6,0.6,3.9,1,5.2,1.1c7.3,0.2,14.7,0.3,22,0.2c4.8,0,5.2-1.1,3.1-5.5c-3.8-8-7.5-16-11.3-24c-0.6-1.3-1.4-2.6-2.1-3.9
		c-0.4,0-0.8-0.1-1.2-0.1C497.8,35.3,492.6,45.8,487.1,56.9z"/>
</g>
<g id="Слой_4">
	<g id="XMLID_1_">
		<path id="XMLID_14_" class="st8" d="M1108.7,80.6c-5.9-3-12-6.9-19-5.8c-5.7,0.8-10.6,4.6-13.5,9.6c-3.6,6.1-3.4,13.1-3.1,20
			c0.3,6.4,1.1,11.9,6.3,16.2c0.6,0.5,1.2,0.7,1.8,0.8l0.1,0.1c3,1.8,5.8,1.9,8.2,0.9c0.8,0.3,1.6,0.5,2.5,0.7
			c4.6,0.9,10.4-1.7,14.6-3.5c5.5-2.4,9.9-6.2,12.4-11.7C1124.5,95.5,1120.1,86.4,1108.7,80.6z M1079.9,98.1
			c0.2-6.6,2.4-14.3,9.7-16.3c4.3-1.2,9.4,1.1,13.7,3.5c-1-0.1-1.9,0.4-2.5,1.1c-6.4-1.4-13.9,2.6-16.7,8.6
			c-0.1,0.2-0.2,0.4-0.3,0.6c-0.5,0.5-0.9,1-1.3,1.6c-1.4,2.1-2.3,4.6-2.6,7.1C1079.8,102.2,1079.9,100,1079.9,98.1z"/>
		<path id="XMLID_11_" class="st9" d="M1120.6,101.2c4.3-12.9-3.4-25.7-15.4-30.9c-10-4.3-24.5-4.2-31.2,5.8
			c-6.9,10.2-2.7,27.3,8,33.3c10.8,6.1,27.3,5.7,36.7-2.9c9.8-8.9,7.9-21.9-3.1-28.7c-11.6-7.2-28.2-6.8-40.8-2.6
			c-11.1,3.7-21.6,14.8-16,27.1c5.7,12.5,24.6,18,37.3,16.8c6.8-0.7,12.6-3.9,17.6-8.3c4.7-4.2,9.9-9.5,11.6-15.8
			c3.2-12.2-9.1-26.1-19.2-31.2c-12.1-6.2-25.8-0.6-33.9,9.5c-8.2,10.2-7.3,25.1,0.6,35.2c7.6,9.8,21.2,15,33.4,13.2
			c12.9-1.9,19.1-12.7,16.7-25.2c-2.3-12.1-12.8-23.1-24.6-26.4c-12.6-3.5-23.9,6.9-26.3,18.8c-2.4,11.7,4.2,23.2,15.4,27.2
			c11.1,4,23.3-2,27.6-12.9c4.8-12.2-3.6-24.3-13.3-31.3c-6.1-4.4-12.8-5.2-20-3.7c-5.2,1.1-12.2,2.9-14.3,8.5
			c-2.2,5.6,0.3,12.7,2.6,17.9c2.3,5.1,6,9.5,11.5,11.2c11.1,3.4,27.2-3.9,30.1-15.6c3.1-12.9-11-16.2-20.8-14.3
			c-13.1,2.6-10.2,19.9-4.1,28c6.9,9.2,21.8,12.2,30.3,3.3c9.2-9.7-1-24.8-11-29.2c-9.6-4.3-26.1-1.4-24.2,12.1
			c0.7,5,4,10.4,9.6,10.5c4.6,0.1,9-3.6,9.1-8.3c0.2-4.6-3.9-9.2-8.7-8.6c-4.2,0.5-7.5,4.9-6.4,9.1c2.5,9.8,19.4,8.4,20.7-1.5
			c1.5-11.5-14.1-15.5-20.1-6.5c-6.3,9.5,2.7,21.5,13.4,19.7c12.4-2.2,14.8-17.7,4-23.9c-9.6-5.5-24,4.4-16.6,15
			c5.6,8.1,25.6,3.4,22.3-7.7c-3.1-10.4-19.3-14.6-24.3-3.4c-5,11.1,8.8,18.3,17.5,12.1c9.3-6.6,0.4-19.9-9.5-17.2
			c-10.9,3-8.5,19.5,3.1,18.2c4.2-0.5,10.2-3.5,9.1-8.5c-1.2-5.4-9.7-8.4-14.4-8.5c-5.2-0.2-6.6,3.7-6.5,8.2
			c0.1,2.5-0.4,3.6,1.4,5.3c1.1,1.1,2.6,2,3.9,2.9c1.8,1.3,4.3-0.9,3.7-2.8c-1.7-5.2-8.6-5.8-11.6-1.4c-3.6,5.4-0.4,14.9,5.6,17.2
			c6.3,2.3,12.1-3.8,14-9.3c2.7-7.7-4.6-11.7-11.3-11.1c-7.1,0.7-14.4,4-15.6,11.8c-1,6.5,1.8,14.3,7.5,17.9
			c13.8,8.7,30.5-12.8,31.9-24.8c0.9-7.6-2.2-15-9-18.9c-7.3-4.2-16.2-3.5-24.1-1.7c-6.8,1.5-14.1,4.5-17.8,10.7
			c-4.2,7.1-2.1,16.2,1.1,23.3c7.8,16.8,29.7,16.4,44.1,8.6c7.4-4,13.2-10.5,14.8-18.9c1.4-7.2,0.5-16.6-4.3-22.5
			c-6-7.3-16.1-6.3-24.5-5.1c-9.1,1.3-19.6,2.7-24.5,11.5c-4.4,7.9-3.8,18.1-0.7,26.3c1.6,4.4,4,8.8,7.3,12.2
			c3.3,3.4,7.4,3.6,11.8,3c2.8-0.4,3.4-3.8,0.7-4.9c-5.4-2.1-10.7-4.2-16.1-6.3c0.6,0.8,1.2,1.6,1.8,2.4c0-6.7-0.3-13.5-0.1-20.2
			c0.2-5.7,5.2-15.8,11.5-16.2c3.2-0.2,3.2-5.2,0-5c-7.8,0.5-12.2,7.6-15,14.2c-1.5,3.4-1.5,6.8-1.5,10.4c0,5.6,0,11.2,0.1,16.8
			c0,1.2,0.8,2,1.8,2.4c5.4,2.1,10.7,4.2,16.1,6.3l0.7-4.9c-3.4,0.5-6,0.7-8.7-2c-1.7-1.7-3.1-4.1-4.1-6.3c-2.6-5-3.9-10.7-3.6-16.4
			c0.2-5.1,1.9-10.7,6.2-13.8c4.1-2.9,10.1-3.6,15-4.4c4.7-0.8,10-1.7,14.8-0.9c6.2,1,9.3,5.9,10.5,11.8
			c2.3,11.7-3.2,21.6-13.8,26.7c-9.2,4.4-24.3,6.5-32.1-1.7c-6.8-7.2-10-21.9-0.8-28.3c7.2-5,19.8-7.3,28.1-4.4
			c12.9,4.5,10.7,19.2,3.6,27.8c-3.3,4-8.1,9.2-13.6,9.7c-6.3,0.6-10.2-6.3-10.2-11.9c0-4.1,2-7,5.8-8.5c1.9-0.7,7.6-2.4,9.4-1
			c1.4,1.1,1.5,5.5,0.8,6.8c-1,2-2.7,3.3-4.9,3.4c-2.8,0.1-3.8-1.3-4.7-4c-0.1-0.5-0.2-0.9-0.4-1.4c-1.1-3.4,0.7-4.7,5.6-3.8
			c0.7-1.6,0.6-1.4,1.3-3l-4.2-3.2c0.4,0.7,0.8,1.4,1.2,2.2c0.1-1.1-0.5-3.6-0.1-4.6c1-2.2,4.2-1.3,5.8-0.7c2.5,0.9,6.8,3,3,5.3
			c-2.7,1.7-7.4,0.2-7.3-3.4c0.1-5,7.3-5.9,9.8-2.1c3.3,5.1-3.6,8.7-8,7.1c-5.4-2-3.6-8.9,1.2-10.5c3.9-1.2,9,1.3,10.3,5.2
			c1.6,4.8-6.4,7.5-10.2,6.3c-6.7-2.2-3-10.4,2.5-10.8c5.1-0.4,10.3,4.6,9.2,9.7c-0.9,4.4-5.8,6.8-10,6c-3.8-0.8-6.3-4.2-6.3-8.1
			c0.1-4.7,6.3-9.4,10.4-5.4c3.9,3.7,0.5,8.9-4.3,8.4c-0.8-0.1-1.9-0.2-2.6-0.6c-2.1-1.4-2-0.3,2.3-3.8l0.5,2.9
			c-0.4,1.4-2.6,2.9-4,2.7c-5.1-0.5-6-9.1-3-12c3.2-3,9.1-3,13.1-1.9c6.9,1.9,15.2,10.1,14,17.9c-1.3,8.8-13.7,9.4-19.9,5.9
			c-6.2-3.6-10.8-12.9-8.8-20c1.2-4.4,5.1-4.8,9.1-5c3.5-0.1,8.2,0.1,10.1,3.5c4.4,7.9-6.8,14.9-13,16.6c-8.8,2.5-15.8-0.7-19.2-9.2
			c-1.1-2.9-2.3-6.3-2.4-9.5c-0.2-5.8,5.1-7.2,9.7-8.4c9.3-2.4,16.3,0.3,22.8,7.1c5.3,5.5,9.2,13,6.3,20.6
			c-2.6,6.6-9.2,11.5-16.3,11.1c-15.3-0.8-22-18.4-13.8-30.4c10.9-15.8,30.9-2.7,36.4,11.1c2.4,6.2,3,14.9-2.2,19.8
			c-5.3,5-14,4.8-20.7,3.2c-14.2-3.5-25.7-17.1-21.5-32.2c2.1-7.5,9-13.8,16.2-16.5c7.9-3,15.6-0.1,21.6,5.3
			c5.4,4.8,12.3,13.2,10.4,21c-1.6,6.6-8.8,12.9-14.2,16.6c-7.4,5-16,4.6-24.3,2.3c-7.6-2.1-17.1-5.8-19.3-14.3
			c-2.2-8.5,5.4-15.3,12.7-17.9c6.9-2.5,14.7-3.3,22-2.8c7.5,0.5,16.7,3,21.2,9.6c4.8,7.2-0.9,15.3-7.5,18.8
			c-6.8,3.5-15.6,3.2-22.7,0.8c-8.2-2.7-12.2-10.1-12.5-18.4c-0.6-18.8,23.3-18.6,34-9.2c6,5.3,8.5,13.2,5.9,20.8
			C1114.7,102.9,1119.5,104.2,1120.6,101.2L1120.6,101.2z"/>
		<path id="XMLID_12_" class="st10" d="M906.3-74.7c0.7-0.1,1.4-0.3,2.1-0.3c16.3-0.1,32.6-0.2,48.8-0.3c1.1,0,2.9-0.2,4-0.4
			c5.9-0.9,9.7,2.9,13.3,8.7c4.5,7.4,10,14,15,20.9c1.2,1.6,2.3,2,3.5,0.1c5-7.7,10.3-15.2,14.9-23.2c2.4-4.2,5.1-6.1,9.3-6
			c15,0.4,30,0.5,45,0.7c1.7,0,3.5,0.1,5.2,0.4c0.9,0.1,2.3,0.5,2.5,1.1c0.3,1-0.1,2.5-0.6,3.4c-2.2,3.7-4.5,7.2-6.8,10.8
			c-10.5,16.6-20.9,33.4-31.4,49.9c-3.9,6.2-8.2,12.1-12.4,18.1c-2.2,3.2-3.1,6.7-3.1,10.8c0.2,31.6-3.5,58.6-3.5,90.2
			c0,4.7-1.5,6.8-2.3,6.8c-10.8,0.5-21.5,0.4-32.3,0.5c-4.3,0.1-6.2,1-10.5,0.2c-0.7-0.1-3.9-3.4-3.9-4.4c-1.4-28.1,1.9-52.6,0.3-80
			c0-4.2-0.3-8.8-0.8-12.8c-0.4-3.1-0.8-5.6-2.5-8.1c-9.8-15.2-19.2-30.8-29-46c-8-12.5-16.4-24.7-24.6-37c-0.3-0.5-0.8-0.8-1.2-1.3
			C904.5-72.9,905-74.4,906.3-74.7z"/>
		<path id="XMLID_42_" class="st11" d="M757.1-83.7c32.4,1.8,63.6,1.5,94.1,5.6c31.2,4.2,50.8,33.9,48.6,65.4
			c-2.8,40.1-29.6,60.3-70.3,62.2c-23.5,1.1-23.5,1-23.5,24.2c0,12.2-0.3,24.3,0.1,36.5c0.2,6.4-1.8,9.2-8.5,9
			c-11.1-0.3-22.2,0.3-33.2-0.4c-2.6-0.2-7-4.1-7-6.3C757,48.2,757.1-16.1,757.1-83.7z M821.6-39.8C806-39.9,806-39.9,806-24.3
			c0,8.9-0.1,17.8,0.1,26.7c0.1,2.3,0.4,5.5,1.9,6.8c10.5,8.7,40.5-4,43-17.9C854.6-29,844.6-39.7,821.6-39.8z"/>
		<path id="XMLID_39_" class="st12" d="M589.6-83.7c32.5,1.8,63.6,1.5,94.2,5.6c31.1,4.2,50.7,34,48.5,65.4
			c-2.8,40.1-29.6,60.2-70.4,62.2c-23.4,1.1-23.5,0.9-23.5,24.3c0,12.5-0.2,25,0.1,37.5c0.1,5.5-1.9,7.8-7.4,7.8
			c-11.4-0.2-22.9,0.3-34.3-0.3c-2.5-0.2-6.9-4.1-6.9-6.4C589.5,48.1,589.6-16.1,589.6-83.7z M638.5-12c0,28,1.8,26.5,25.7,21
			c15.4-3.6,21.8-13.5,19.5-30.1c-2-14-15.2-18.5-37.7-18.5c-9.1,0-6.7,7.9-7.4,20.2C638.6-18.4,638.5-13,638.5-12z"/>
		<path id="XMLID_2_" class="st13" d="M371.4,117.2c-1.3-0.1-2.1-1.5-1.5-2.7c2.4-4.7,9.7-14.1,12.1-19c4.2-8.7,9.8-15.6,14.1-24.2
			c5.6-11.1,12.4-21.4,18.3-32.4c4.1-7.8,8.2-15.7,12.5-23.4C430.7,8.7,435,2.1,439-4.7c4.7-8.1,9.2-16.3,14-24.3
			c3.7-6.2,5.3-14.6,9-20.8c5.5-9.2,10.6-18.5,15.9-27.8c0.6-1.1,2.2-1.1,2.8,0c2.5,4.3,5.1,8.6,7.3,13c5,9.8,9.8,19.8,14.9,29.6
			c4.7,9.1,8.5,20,13.1,29.1c4.1,8.1,7.8,17.9,11.5,26.2c2.8,6.2,4,10.4,6.4,16.7c2.8,7.3,6.9,15.6,9.7,22.9
			c2.4,6.4,6.3,10.5,8.8,16.8c2.7,6.8,5.4,13.6,8.2,20.4c1.6,3.9,7.8,17.5,9.4,21.4c0,1.4-4.5-0.7-4.5,0.7
			c-7.6,0.2-15.3,0.4-22.9,0.7c-4.8,0.2-9.6,0.5-14.3,0.7c-3.7,0-7.4,0-11,0c-3.7-8.7-7.4-23.9-11.2-32.6c-0.4-1-1.6-1.9-2.7-2.2
			c-2-0.5-4.1-0.6-6.1-0.6c-12.2,0-24.3,0.1-36.5,0.2c-5.4,0.1-10.8,0-16.2,0.4c-1.6,0.1-3.7,1.3-4.4,2.6
			c-3.4,6.6-10.8,17.8-14,24.5c-0.5,1.1-1.4,2.4-2.4,2.6c-2.8,0.8-5.7,1.4-8.6,1.6c-10.7,0.4-21.3,0.7-32,0.8
			C379.1,117.8,375.2,117.4,371.4,117.2z M458.9,52.3c2.6,0.6,3.9,1,5.2,1.1c7.3,0.2,14.7,0.3,22,0.2c4.8,0,5.2-1.1,3.1-5.5
			c-3.8-8-7.5-16-11.3-24c-0.6-1.4-1.4-2.7-2.1-4c-0.2-0.5-0.9-0.4-1.1,0C469.5,30.7,464.3,41.2,458.9,52.3z"/>
	</g>
</g>
<g id="Слой_6">
</g>
</svg>
