<?xml version="1.0" encoding="utf-8"?>
<!-- Generator: Adobe Illustrator 19.0.0, SVG Export Plug-In . SVG Version: 6.00 Build 0)  -->
<!DOCTYPE svg PUBLIC "-//W3C//DTD SVG 1.1//EN" "http://www.w3.org/Graphics/SVG/1.1/DTD/svg11.dtd">
<svg version="1.1" id="Слой_1" xmlns="http://www.w3.org/2000/svg" xmlns:xlink="http://www.w3.org/1999/xlink" x="0px" y="0px"
	 viewBox="0 0 40 40" enable-background="new 0 0 40 40" xml:space="preserve">
<path id="XMLID_11_" fill="#FFFFFF" d="M26.5,7.1l-3.4,0c-3.8,0-6.2,2.5-6.2,6.4v2.9h-3.4c-0.3,0-0.5,0.2-0.5,0.5v4.2
	c0,0.3,0.2,0.5,0.5,0.5h3.4v10.7c0,0.3,0.2,0.5,0.5,0.5h4.4c0.3,0,0.5-0.2,0.5-0.5V21.7h3.9c0.3,0,0.5-0.2,0.5-0.5l0-4.2
	c0-0.1-0.1-0.3-0.2-0.4c-0.1-0.1-0.2-0.2-0.4-0.2h-3.9v-2.5c0-1.2,0.3-1.8,1.8-1.8l2.3,0c0.3,0,0.5-0.2,0.5-0.5V7.6
	C27,7.3,26.8,7.1,26.5,7.1L26.5,7.1z M26.5,7.1"/>
</svg>
