<?xml version="1.0" encoding="utf-8"?>
<!-- Generator: Adobe Illustrator 19.0.0, SVG Export Plug-In . SVG Version: 6.00 Build 0)  -->
<!DOCTYPE svg PUBLIC "-//W3C//DTD SVG 1.1//EN" "http://www.w3.org/Graphics/SVG/1.1/DTD/svg11.dtd">
<svg version="1.1" id="Слой_1" xmlns="http://www.w3.org/2000/svg" xmlns:xlink="http://www.w3.org/1999/xlink" x="0px" y="0px"
	 viewBox="0 0 40 40" enable-background="new 0 0 40 40" xml:space="preserve">
<g id="XMLID_4_" display="none">
	<g id="XMLID_5_" display="inline">
		<path id="XMLID_6_" fill-rule="evenodd" clip-rule="evenodd" fill="#FFFFFF" d="M35.6,26c-1-1.2-2.2-2.2-3.3-3.3
			c-1-1-1.1-1.6-0.3-2.7c0.9-1.2,1.8-2.4,2.7-3.7c0.8-1.2,1.7-2.3,2.1-3.7c0.3-0.9,0-1.3-0.9-1.4c-0.2,0-0.3,0-0.5,0l-5.4,0
			c-0.7,0-1,0.3-1.3,0.9c-0.3,0.8-0.6,1.6-1,2.4C27,16,26,17.7,24.7,19.1c-0.3,0.3-0.6,0.7-1.1,0.5c-0.6-0.2-0.8-1.2-0.8-1.6l0-6.2
			c-0.1-0.9-0.3-1.3-1.2-1.5l-5.6,0c-0.7,0-1.1,0.3-1.5,0.8c-0.2,0.3-0.3,0.4,0.2,0.5c0.9,0.2,1.4,0.8,1.6,1.7
			c0.2,1.5,0.2,3,0.1,4.5c0,0.4-0.1,0.9-0.3,1.3c-0.3,0.6-0.7,0.8-1.3,0.4c-0.5-0.4-0.9-0.9-1.2-1.4c-1.3-1.9-2.4-3.9-3.3-6.1
			c-0.3-0.6-0.7-1-1.3-1c-1.6,0-3.2,0-4.8,0c-1,0-1.3,0.5-0.9,1.4c1.8,3.9,3.7,7.7,6.3,11.2c1.3,1.8,2.8,3.3,4.8,4.5
			c2.2,1.3,4.6,1.6,7.1,1.5c1.2-0.1,1.5-0.4,1.6-1.5c0-0.8,0.1-1.6,0.5-2.3c0.4-0.7,1-0.8,1.6-0.4c0.3,0.2,0.6,0.5,0.9,0.8
			c0.7,0.7,1.3,1.5,2,2.2c0.9,0.9,1.9,1.4,3.1,1.3H36c0.8-0.1,1.2-1,0.8-1.9C36.4,27,36,26.5,35.6,26L35.6,26z M35.6,26"/>
	</g>
</g>
<g id="XMLID_9_">
	<g id="XMLID_10_">
		<path id="XMLID_11_" fill="#FFFFFF" d="M27,6l-3.6,0c-4.1,0-6.7,2.7-6.7,6.9v3.2H13c-0.3,0-0.6,0.3-0.6,0.6v4.6
			c0,0.3,0.3,0.6,0.6,0.6h3.7v11.6c0,0.3,0.3,0.6,0.6,0.6H22c0.3,0,0.6-0.3,0.6-0.6V21.8h4.3c0.3,0,0.6-0.3,0.6-0.6l0-4.6
			c0-0.2-0.1-0.3-0.2-0.4c-0.1-0.1-0.3-0.2-0.4-0.2h-4.3v-2.7c0-1.3,0.3-2,2-2l2.4,0c0.3,0,0.6-0.3,0.6-0.6V6.6
			C27.6,6.3,27.3,6,27,6L27,6z M27,6"/>
	</g>
</g>
<text id="XMLID_8_" transform="matrix(1 0 0 1 6.4104 31.1294)" display="none" fill="#AA1313" font-family="'Ionicons'" font-size="29.4822px"></text>
</svg>
