<?xml version="1.0" encoding="utf-8"?>
<!-- Generator: Adobe Illustrator 18.0.0, SVG Export Plug-In . SVG Version: 6.00 Build 0)  -->
<!DOCTYPE svg PUBLIC "-//W3C//DTD SVG 1.1//EN" "http://www.w3.org/Graphics/SVG/1.1/DTD/svg11.dtd">
<svg version="1.1" id="Слой_1" xmlns="http://www.w3.org/2000/svg" xmlns:xlink="http://www.w3.org/1999/xlink" x="0px" y="0px"
	 viewBox="0 0 85 113.4" enable-background="new 0 0 85 113.4" xml:space="preserve">
<g id="_x33_">
	<path id="shadow_2_" opacity="0.1" fill="#4D9DB7" d="M105.8,75.2c-0.1-0.1-23-23-23.1-23.1c-0.1-0.2-0.3-0.3-0.4-0.4
		c-0.1-0.2-0.3-0.3-0.4-0.4c-0.1-0.2-0.3-0.3-0.4-0.4c-0.1-0.2-0.3-0.3-0.4-0.4c-0.1-0.2-0.3-0.3-0.4-0.4c-0.1-0.2-0.3-0.3-0.4-0.4
		c-0.1-0.2-0.3-0.3-0.4-0.4c-0.1-0.2-0.3-0.3-0.4-0.4c-0.1-0.2-0.3-0.3-0.4-0.4c-0.1-0.2-0.3-0.3-0.4-0.4c-0.1-0.2-0.3-0.3-0.4-0.4
		c-0.1-0.2-0.3-0.3-0.4-0.4c-0.1-0.2-0.3-0.3-0.4-0.4c-0.1-0.2-0.3-0.3-0.4-0.4c-0.1-0.2-0.3-0.3-0.4-0.4c-0.1-0.2-0.3-0.3-0.4-0.4
		c-0.1-0.2-0.3-0.3-0.4-0.4c-0.1-0.2-0.3-0.3-0.4-0.4c-0.1-0.2-0.3-0.3-0.4-0.4c-0.1-0.2-0.3-0.3-0.4-0.4c-0.1-0.2-0.3-0.3-0.4-0.4
		c-0.1-0.2-0.3-0.3-0.4-0.4c-0.1-0.2-0.3-0.3-0.4-0.4c-0.1-0.2-0.3-0.3-0.4-0.4c-0.1-0.2-0.3-0.3-0.4-0.4c-0.1-0.2-0.3-0.3-0.4-0.4
		c-0.1-0.2-0.3-0.3-0.4-0.4c-0.1-0.2-0.3-0.3-0.4-0.4c-0.1-0.2-0.3-0.3-0.4-0.4c-0.1-0.2-0.3-0.3-0.4-0.4c-0.1-0.2-0.3-0.3-0.4-0.4
		c-0.1-0.2-0.3-0.3-0.4-0.4c-0.1-0.2-0.3-0.3-0.4-0.4c-0.1-0.2-0.3-0.3-0.4-0.4c-0.1-0.2-0.3-0.3-0.4-0.4c-0.1-0.2-0.3-0.3-0.4-0.4
		c-0.1-0.2-0.3-0.3-0.4-0.4c-0.1-0.2-0.3-0.3-0.4-0.4c-0.1-0.2-0.3-0.3-0.4-0.4c-0.1-0.2-0.3-0.3-0.4-0.4c-0.1-0.2-0.3-0.3-0.4-0.4
		c-0.1-0.2-0.3-0.3-0.4-0.4c-0.1-0.2-0.3-0.3-0.4-0.4c-0.1-0.2-0.3-0.3-0.4-0.4c-0.1-0.2-0.3-0.3-0.4-0.4c-0.1-0.2-0.3-0.3-0.4-0.4
		c-0.1-0.2-0.3-0.3-0.4-0.4c-0.1-0.2-0.3-0.3-0.4-0.4c-0.1-0.2-0.3-0.3-0.4-0.4c-0.1-0.2-0.3-0.3-0.4-0.4c-0.1-0.2-0.3-0.3-0.4-0.4
		c-0.1-0.2-0.3-0.3-0.4-0.4c-0.1-0.2-0.3-0.3-0.4-0.4c-0.1-0.2-0.3-0.3-0.4-0.4c-0.1-0.2-0.3-0.3-0.4-0.4c-0.1-0.2-0.3-0.3-0.4-0.4
		c-0.1-0.2-0.3-0.3-0.4-0.4c-0.1-0.2-0.3-0.3-0.4-0.4c-0.1-0.2-0.3-0.3-0.4-0.4c-0.1-0.2-0.3-0.3-0.4-0.4c-0.1-0.2-0.3-0.3-0.4-0.4
		c-0.7-0.8-1.8-1.4-2.9-1.4h-3.7l-8.7-7l-8.7,7h-3.7c-2.1,0-3.9,1.7-3.9,3.9v2.2l-5,4h0.3c0,0.1-0.1,0.1-0.1,0.2
		c-0.1-0.1-0.2-0.1-0.2,0v0.8v26.8c0,0.6,0.3,1.1,0.7,1.4c0.1,0.2,0.3,0.3,0.4,0.4c0.1,0.2,0.3,0.3,0.4,0.4c0.1,0.2,0.3,0.3,0.4,0.4
		c0.1,0.2,0.3,0.3,0.4,0.4c0.1,0.2,0.3,0.3,0.4,0.4c0.1,0.2,0.3,0.3,0.4,0.4c0.1,0.2,0.3,0.3,0.4,0.4c0.1,0.2,0.3,0.3,0.4,0.4
		c0.1,0.2,0.3,0.3,0.4,0.4c0.1,0.2,0.3,0.3,0.4,0.4c0.1,0.2,0.3,0.3,0.4,0.4c0.1,0.2,0.3,0.3,0.4,0.4c0.1,0.2,0.3,0.3,0.4,0.4
		c0.1,0.2,0.3,0.3,0.4,0.4c0.1,0.2,0.3,0.3,0.4,0.4c0.1,0.2,0.3,0.3,0.4,0.4c0.1,0.2,0.3,0.3,0.4,0.4c0.1,0.2,0.3,0.3,0.4,0.4
		c0.1,0.2,0.3,0.3,0.4,0.4c0.1,0.2,0.3,0.3,0.4,0.4c0.1,0.2,0.3,0.3,0.4,0.4c0.1,0.2,0.3,0.3,0.4,0.4c0.1,0.2,0.3,0.3,0.4,0.4
		c0.1,0.2,0.3,0.3,0.4,0.4c0.1,0.2,0.3,0.3,0.4,0.4c0.1,0.2,0.3,0.3,0.4,0.4c0.1,0.2,0.3,0.3,0.4,0.4c0.1,0.2,0.3,0.3,0.4,0.4
		c0.1,0.2,0.3,0.3,0.4,0.4c0.1,0.2,0.3,0.3,0.4,0.4c0.1,0.2,0.3,0.3,0.4,0.4c0.1,0.2,0.3,0.3,0.4,0.4c0.1,0.2,0.3,0.3,0.4,0.4
		c0.1,0.2,0.3,0.3,0.4,0.4c0.1,0.2,0.3,0.3,0.4,0.4c0.1,0.2,0.3,0.3,0.4,0.4c0.1,0.2,0.3,0.3,0.4,0.4c0.1,0.2,0.3,0.3,0.4,0.4
		c0.1,0.2,0.3,0.3,0.4,0.4c0.1,0.2,0.3,0.3,0.4,0.4c0.1,0.2,0.3,0.3,0.4,0.4c0.1,0.2,0.3,0.3,0.4,0.4c0.1,0.2,0.3,0.3,0.4,0.4
		c0.1,0.1,65.7,65.8,65.8,65.9"/>
	<g id="icon_2_">
		<g id="back_1_">
			<path fill="#CCD0D8" d="M19.7,62.4c0,0.9,0.7,1.7,1.7,1.7h39.3c0.9,0,1.7-0.7,1.7-1.7V34.5l-1.7-0.7H21.3l-1.6,0.7V62.4z"/>
			<polygon fill="#EDEDED" points="62.4,34.5 19.7,34.5 41.1,17.5 			"/>
		</g>
		<path fill="#73BED0" d="M57.3,47.7c0,2.1-1.7,3.9-3.9,3.9H28.6c-2.1,0-3.9-1.7-3.9-3.9V28.3c0-2.1,1.7-3.9,3.9-3.9h24.8
			c2.1,0,3.9,1.7,3.9,3.9V47.7z"/>
		<g id="lines">
			<path fill="#48A5C1" d="M31.7,31.9h18.4c0.2,0,0.4-0.2,0.4-0.5c0-0.3-0.2-0.5-0.4-0.5H31.7c-0.2,0-0.4,0.2-0.4,0.5
				C31.3,31.7,31.5,31.9,31.7,31.9z"/>
			<path fill="#48A5C1" d="M50.1,34.5H31.7c-0.2,0-0.4,0.2-0.4,0.5c0,0.3,0.2,0.5,0.4,0.5h18.4c0.2,0,0.4-0.2,0.4-0.5
				C50.6,34.7,50.4,34.5,50.1,34.5z"/>
			<path fill="#48A5C1" d="M50.1,38H31.7c-0.2,0-0.4,0.2-0.4,0.5c0,0.3,0.2,0.5,0.4,0.5h18.4c0.2,0,0.4-0.2,0.4-0.5
				C50.6,38.2,50.4,38,50.1,38z"/>
		</g>
		<path id="inner_shadow" fill="#D7D6D6" d="M41,47.1L24.8,35.8v16.9c0,1,0.8,1.8,1.8,1.8h29c1,0,1.8-0.8,1.8-1.8l0-17.3L41,47.1z"
			/>
		<g id="front_1_">
			<path fill="#EDEDED" d="M41.1,49L60.7,64c0.9,0,1.7-0.7,1.7-1.7V34.7C62.4,33.8,41.1,49,41.1,49z"/>
			<path fill="#EDEDED" d="M19.7,34.7v27.7c0,0.9,0.7,1.7,1.7,1.7L41.1,49C41.1,49,19.7,33.8,19.7,34.7z"/>
			<polygon fill="#FFFFFF" points="21.4,64 60.7,64 41.1,48.8 			"/>
		</g>
	</g>
</g>
</svg>
