<?xml version="1.0" encoding="utf-8"?>
<!-- Generator: Adobe Illustrator 19.0.0, SVG Export Plug-In . SVG Version: 6.00 Build 0)  -->
<!DOCTYPE svg PUBLIC "-//W3C//DTD SVG 1.1//EN" "http://www.w3.org/Graphics/SVG/1.1/DTD/svg11.dtd">
<svg version="1.1" id="Слой_1" xmlns="http://www.w3.org/2000/svg" xmlns:xlink="http://www.w3.org/1999/xlink" x="0px" y="0px"
	 viewBox="0 0 40 40" enable-background="new 0 0 40 40" xml:space="preserve">
<path id="XMLID_15_" fill="#FFFFFF" d="M33.6,11.7c-0.7,1.1-1.6,2-2.8,2.9v0.7c0,4-1.4,7.7-4.3,11s-6.7,4.9-11.5,4.9
	c-3.1,0-5.9-0.8-8.5-2.5c0.6,0.1,1.1,0.1,1.3,0.1c2.6,0,4.9-0.8,6.9-2.4c-1.2,0-2.3-0.4-3.2-1.1c-1-0.7-1.6-1.6-2-2.7
	c0.5,0.1,0.8,0.1,1,0.1c0.4,0,0.9-0.1,1.5-0.2c-1.3-0.3-2.3-0.9-3.2-1.9c-0.9-1-1.3-2.2-1.3-3.5v-0.1c0.8,0.5,1.7,0.7,2.5,0.7
	c-1.7-1.1-2.5-2.6-2.5-4.7c0-1,0.2-1.9,0.7-2.8c3,3.6,6.8,5.6,11.5,5.8c-0.1-0.3-0.1-0.7-0.1-1.3c0-1.6,0.5-2.9,1.6-4
	c1.1-1.1,2.4-1.6,4-1.6s2.9,0.6,4,1.8c1.2-0.2,2.3-0.7,3.6-1.4c-0.4,1.3-1.2,2.4-2.5,3.1C31.6,12.4,32.6,12.1,33.6,11.7z"/>
</svg>
