<?xml version="1.0" encoding="utf-8"?>
<!-- Generator: Adobe Illustrator 19.0.0, SVG Export Plug-In . SVG Version: 6.00 Build 0)  -->
<!DOCTYPE svg PUBLIC "-//W3C//DTD SVG 1.1//EN" "http://www.w3.org/Graphics/SVG/1.1/DTD/svg11.dtd">
<svg version="1.1" id="Слой_1" xmlns="http://www.w3.org/2000/svg" xmlns:xlink="http://www.w3.org/1999/xlink" x="0px" y="0px"
	 viewBox="0 0 40 40" enable-background="new 0 0 40 40" xml:space="preserve">
<path id="XMLID_6_" fill-rule="evenodd" clip-rule="evenodd" fill="#FFFFFF" d="M35.6,26c-1-1.2-2.2-2.2-3.3-3.3
	c-1-1-1.1-1.6-0.3-2.7c0.9-1.2,1.8-2.4,2.7-3.7c0.8-1.2,1.7-2.3,2.1-3.7c0.3-0.9,0-1.3-0.9-1.4c-0.2,0-0.3,0-0.5,0l-5.4,0
	c-0.7,0-1,0.3-1.3,0.9c-0.3,0.8-0.6,1.6-1,2.4C27,16,26,17.7,24.7,19.1c-0.3,0.3-0.6,0.7-1.1,0.5c-0.6-0.2-0.8-1.2-0.8-1.6l0-6.2
	c-0.1-0.9-0.3-1.3-1.2-1.5l-5.6,0c-0.7,0-1.1,0.3-1.5,0.8c-0.2,0.3-0.3,0.4,0.2,0.5c0.9,0.2,1.4,0.8,1.6,1.7c0.2,1.5,0.2,3,0.1,4.5
	c0,0.4-0.1,0.9-0.3,1.3c-0.3,0.6-0.7,0.8-1.3,0.4c-0.5-0.4-0.9-0.9-1.2-1.4c-1.3-1.9-2.4-3.9-3.3-6.1c-0.3-0.6-0.7-1-1.3-1
	c-1.6,0-3.2,0-4.8,0c-1,0-1.3,0.5-0.9,1.4c1.8,3.9,3.7,7.7,6.3,11.2c1.3,1.8,2.8,3.3,4.8,4.5c2.2,1.3,4.6,1.6,7.1,1.5
	c1.2-0.1,1.5-0.4,1.6-1.5c0-0.8,0.1-1.6,0.5-2.3c0.4-0.7,1-0.8,1.6-0.4c0.3,0.2,0.6,0.5,0.9,0.8c0.7,0.7,1.3,1.5,2,2.2
	c0.9,0.9,1.9,1.4,3.1,1.3H36c0.8-0.1,1.2-1,0.8-1.9C36.4,27,36,26.5,35.6,26L35.6,26z M35.6,26"/>
</svg>
