<?xml version="1.0" encoding="utf-8"?>
<!-- Generator: Adobe Illustrator 19.0.0, SVG Export Plug-In . SVG Version: 6.00 Build 0)  -->
<!DOCTYPE svg PUBLIC "-//W3C//DTD SVG 1.1//EN" "http://www.w3.org/Graphics/SVG/1.1/DTD/svg11.dtd">
<svg version="1.1" id="Слой_1" xmlns="http://www.w3.org/2000/svg" xmlns:xlink="http://www.w3.org/1999/xlink" x="0px" y="0px"
	 viewBox="0 0 226 56" enable-background="new 0 0 226 56" xml:space="preserve">
<g id="XMLID_4_">
	<path id="XMLID_14_" display="none" fill="#FFFFFF" d="M195.5,44.1c-1.6-0.8-3.2-1.8-5-1.5c-1.5,0.2-2.8,1.2-3.6,2.5
		c-0.9,1.6-0.9,3.5-0.8,5.3c0.1,1.7,0.3,3.1,1.7,4.3c0.1,0.1,0.3,0.2,0.5,0.2c0,0,0,0,0,0c0.8,0.5,1.5,0.5,2.2,0.2
		c0.2,0.1,0.4,0.1,0.6,0.2c1.2,0.2,2.8-0.4,3.9-0.9c1.5-0.6,2.6-1.6,3.3-3.1C199.7,48.1,198.5,45.6,195.5,44.1z M187.9,48.7
		c0-1.7,0.6-3.8,2.6-4.3c1.1-0.3,2.5,0.3,3.6,0.9c-0.3,0-0.5,0.1-0.7,0.3c-1.7-0.4-3.7,0.7-4.4,2.3c0,0.1,0,0.1-0.1,0.2
		c-0.1,0.1-0.2,0.3-0.3,0.4c-0.4,0.6-0.6,1.2-0.7,1.9C187.8,49.8,187.8,49.3,187.9,48.7z"/>
	<path id="XMLID_11_" fill="#FFFFFF" d="M221.6,49.5c1.1-3.4-0.9-6.8-4.1-8.2c-2.6-1.1-6.5-1.1-8.2,1.5c-1.8,2.7-0.7,7.2,2.1,8.8
		c2.9,1.6,7.2,1.5,9.7-0.8c2.6-2.4,2.1-5.8-0.8-7.6c-3.1-1.9-7.4-1.8-10.8-0.7c-2.9,1-5.7,3.9-4.2,7.2c1.5,3.3,6.5,4.8,9.9,4.4
		c1.8-0.2,3.3-1,4.7-2.2c1.2-1.1,2.6-2.5,3.1-4.2c0.8-3.2-2.4-6.9-5.1-8.2c-3.2-1.6-6.8-0.2-9,2.5c-2.2,2.7-1.9,6.6,0.1,9.3
		c2,2.6,5.6,4,8.8,3.5c3.4-0.5,5.1-3.4,4.4-6.7c-0.6-3.2-3.4-6.1-6.5-7c-3.3-0.9-6.3,1.8-7,5c-0.6,3.1,1.1,6.1,4.1,7.2
		c2.9,1,6.2-0.5,7.3-3.4c1.3-3.2-1-6.4-3.5-8.3c-1.6-1.2-3.4-1.4-5.3-1c-1.4,0.3-3.2,0.8-3.8,2.2c-0.6,1.5,0.1,3.4,0.7,4.7
		c0.6,1.4,1.6,2.5,3,3c2.9,0.9,7.2-1,8-4.1c0.8-3.4-2.9-4.3-5.5-3.8c-3.5,0.7-2.7,5.3-1.1,7.4c1.8,2.4,5.8,3.2,8,0.9
		c2.4-2.6-0.3-6.6-2.9-7.7c-2.5-1.1-6.9-0.4-6.4,3.2c0.2,1.3,1.1,2.7,2.5,2.8c1.2,0,2.4-1,2.4-2.2c0-1.2-1-2.4-2.3-2.3
		c-1.1,0.1-2,1.3-1.7,2.4c0.7,2.6,5.1,2.2,5.5-0.4c0.4-3-3.7-4.1-5.3-1.7c-1.7,2.5,0.7,5.7,3.5,5.2c3.3-0.6,3.9-4.7,1.1-6.3
		c-2.5-1.5-6.4,1.2-4.4,4c1.5,2.1,6.8,0.9,5.9-2c-0.8-2.8-5.1-3.9-6.4-0.9c-1.3,2.9,2.3,4.8,4.6,3.2c2.5-1.7,0.1-5.3-2.5-4.5
		c-2.9,0.8-2.2,5.2,0.8,4.8c1.1-0.1,2.7-0.9,2.4-2.3c-0.3-1.4-2.6-2.2-3.8-2.3c-1.4,0-1.8,1-1.7,2.2c0,0.7-0.1,1,0.4,1.4
		c0.3,0.3,0.7,0.5,1,0.8c0.5,0.4,1.1-0.2,1-0.7c-0.4-1.4-2.3-1.5-3.1-0.4c-0.9,1.4-0.1,4,1.5,4.5c1.7,0.6,3.2-1,3.7-2.5
		c0.7-2-1.2-3.1-3-2.9c-1.9,0.2-3.8,1.1-4.1,3.1c-0.3,1.7,0.5,3.8,2,4.7c3.7,2.3,8.1-3.4,8.4-6.6c0.2-2-0.6-4-2.4-5
		c-1.9-1.1-4.3-0.9-6.4-0.4c-1.8,0.4-3.7,1.2-4.7,2.8c-1.1,1.9-0.6,4.3,0.3,6.2c2.1,4.4,7.9,4.3,11.7,2.3c1.9-1.1,3.5-2.8,3.9-5
		c0.4-1.9,0.1-4.4-1.1-6c-1.6-1.9-4.3-1.7-6.5-1.4c-2.4,0.3-5.2,0.7-6.5,3c-1.2,2.1-1,4.8-0.2,7c0.4,1.2,1.1,2.3,1.9,3.2
		c0.9,0.9,1.9,0.9,3.1,0.8c0.7-0.1,0.9-1,0.2-1.3c-1.4-0.6-2.8-1.1-4.3-1.7c0.2,0.2,0.3,0.4,0.5,0.6c0-1.8-0.1-3.6,0-5.3
		c0.1-1.5,1.4-4.2,3.1-4.3c0.8-0.1,0.9-1.4,0-1.3c-2.1,0.1-3.2,2-4,3.7c-0.4,0.9-0.4,1.8-0.4,2.8c0,1.5,0,3,0,4.5
		c0,0.3,0.2,0.5,0.5,0.6c1.4,0.6,2.8,1.1,4.3,1.7L213,54c-0.9,0.1-1.6,0.2-2.3-0.5c-0.4-0.4-0.8-1.1-1.1-1.7c-0.7-1.3-1-2.8-1-4.3
		c0.1-1.3,0.5-2.8,1.6-3.6c1.1-0.8,2.7-0.9,4-1.2c1.2-0.2,2.6-0.4,3.9-0.2c1.7,0.3,2.5,1.6,2.8,3.1c0.6,3.1-0.8,5.7-3.6,7.1
		c-2.4,1.2-6.4,1.7-8.5-0.4c-1.8-1.9-2.6-5.8-0.2-7.5c1.9-1.3,5.2-1.9,7.4-1.2c3.4,1.2,2.8,5.1,0.9,7.4c-0.9,1.1-2.2,2.4-3.6,2.6
		c-1.7,0.2-2.7-1.7-2.7-3.1c0-1.1,0.5-1.9,1.5-2.2c0.5-0.2,2-0.6,2.5-0.3c0.4,0.3,0.4,1.4,0.2,1.8c-0.3,0.5-0.7,0.9-1.3,0.9
		c-0.7,0-1-0.3-1.2-1.1c0-0.1-0.1-0.2-0.1-0.4c-0.3-0.9,0.2-1.2,1.5-1c0.2-0.4,0.2-0.4,0.4-0.8l-1.1-0.8c0.1,0.2,0.2,0.4,0.3,0.6
		c0-0.3-0.1-1,0-1.2c0.3-0.6,1.1-0.3,1.5-0.2c0.7,0.2,1.8,0.8,0.8,1.4c-0.7,0.5-2,0.1-1.9-0.9c0-1.3,1.9-1.5,2.6-0.6
		c0.9,1.4-1,2.3-2.1,1.9c-1.4-0.5-1-2.4,0.3-2.8c1-0.3,2.4,0.3,2.7,1.4c0.4,1.3-1.7,2-2.7,1.7c-1.8-0.6-0.8-2.7,0.7-2.9
		c1.4-0.1,2.7,1.2,2.4,2.6c-0.2,1.2-1.5,1.8-2.7,1.6c-1-0.2-1.7-1.1-1.7-2.1c0-1.2,1.7-2.5,2.7-1.4c1,1,0.1,2.3-1.1,2.2
		c-0.2,0-0.5-0.1-0.7-0.2c-0.6-0.4-0.5-0.1,0.6-1l0.1,0.8c-0.1,0.4-0.7,0.8-1.1,0.7c-1.4-0.1-1.6-2.4-0.8-3.2
		c0.8-0.8,2.4-0.8,3.5-0.5c1.8,0.5,4,2.7,3.7,4.7c-0.3,2.3-3.6,2.5-5.3,1.6c-1.6-0.9-2.9-3.4-2.3-5.3c0.3-1.2,1.4-1.3,2.4-1.3
		c0.9,0,2.2,0,2.7,0.9c1.2,2.1-1.8,3.9-3.4,4.4c-2.3,0.7-4.2-0.2-5.1-2.4c-0.3-0.8-0.6-1.7-0.6-2.5c-0.1-1.5,1.3-1.9,2.6-2.2
		c2.5-0.6,4.3,0.1,6,1.9c1.4,1.5,2.4,3.4,1.7,5.5c-0.7,1.7-2.4,3-4.3,2.9c-4.1-0.2-5.8-4.9-3.7-8c2.9-4.2,8.2-0.7,9.6,2.9
		c0.6,1.6,0.8,3.9-0.6,5.2c-1.4,1.3-3.7,1.3-5.5,0.8c-3.8-0.9-6.8-4.5-5.7-8.5c0.6-2,2.4-3.6,4.3-4.4c2.1-0.8,4.1,0,5.7,1.4
		c1.4,1.3,3.3,3.5,2.7,5.6c-0.4,1.7-2.3,3.4-3.8,4.4c-2,1.3-4.2,1.2-6.4,0.6c-2-0.6-4.5-1.5-5.1-3.8c-0.6-2.3,1.4-4.1,3.4-4.7
		c1.8-0.7,3.9-0.9,5.8-0.7c2,0.1,4.4,0.8,5.6,2.5c1.3,1.9-0.2,4.1-2,5c-1.8,0.9-4.1,0.8-6,0.2c-2.2-0.7-3.2-2.7-3.3-4.9
		c-0.1-5,6.2-4.9,9-2.4c1.6,1.4,2.2,3.5,1.6,5.5C220.1,50,221.3,50.4,221.6,49.5L221.6,49.5z"/>
	<path id="XMLID_12_" fill="#FFFFFF" d="M159.9,3c0.2,0,0.4-0.1,0.5-0.1c4.3,0,8.6-0.1,12.9-0.1c0.3,0,0.8-0.1,1.1-0.1
		c1.6-0.2,2.6,0.8,3.5,2.3c1.2,2,2.6,3.7,4,5.5c0.3,0.4,0.6,0.5,0.9,0c1.3-2,2.7-4,4-6.1c0.6-1.1,1.3-1.6,2.5-1.6
		c4,0.1,7.9,0.1,11.9,0.2c0.5,0,0.9,0,1.4,0.1c0.2,0,0.6,0.1,0.7,0.3c0.1,0.3,0,0.7-0.2,0.9c-0.6,1-1.2,1.9-1.8,2.8
		c-2.8,4.4-5.5,8.8-8.3,13.2c-1,1.6-2.2,3.2-3.3,4.8c-0.6,0.8-0.8,1.8-0.8,2.9c0,8.4-0.9,15.5-0.9,23.9c0,1.2-0.4,1.8-0.6,1.8
		c-2.9,0.1-5.7,0.1-8.5,0.1c-1.1,0-1.6,0.3-2.8,0c-0.2,0-1-0.9-1-1.2c-0.4-7.4,0.5-13.9,0.1-21.2c0-1.1-0.1-2.3-0.2-3.4
		c-0.1-0.8-0.2-1.5-0.6-2.1c-2.6-4-5.1-8.1-7.7-12.2c-2.1-3.3-4.3-6.5-6.5-9.8c-0.1-0.1-0.2-0.2-0.3-0.3
		C159.5,3.5,159.6,3.1,159.9,3z"/>
	<path id="XMLID_42_" fill="#FFFFFF" d="M114.5,0.6c8.6,0.5,16.8,0.4,24.9,1.5c8.2,1.1,13.4,9,12.9,17.3
		c-0.7,10.6-7.8,15.9-18.6,16.5c-6.2,0.3-6.2,0.3-6.2,6.4c0,3.2-0.1,6.4,0,9.6c0.1,1.7-0.5,2.4-2.2,2.4c-2.9-0.1-5.9,0.1-8.8-0.1
		c-0.7,0-1.8-1.1-1.8-1.7C114.5,35.5,114.5,18.5,114.5,0.6z M131.5,12.3c-4.1,0-4.1,0-4.1,4.1c0,2.4,0,4.7,0,7.1
		c0,0.6,0.1,1.5,0.5,1.8c2.8,2.3,10.7-1.1,11.4-4.7C140.3,15.1,137.6,12.3,131.5,12.3z"/>
	<path id="XMLID_39_" fill="#FFFFFF" d="M65.2,0.6C73.8,1.1,82,1.1,90.1,2.1c8.2,1.1,13.4,9,12.8,17.3c-0.7,10.6-7.8,15.9-18.6,16.4
		c-6.2,0.3-6.2,0.3-6.2,6.4c0,3.3,0,6.6,0,9.9c0,1.4-0.5,2.1-2,2.1c-3,0-6.1,0.1-9.1-0.1c-0.7,0-1.8-1.1-1.8-1.7
		C65.1,35.5,65.2,18.5,65.2,0.6z M78.1,19.6c0,7.4,0.5,7,6.8,5.5c4.1-0.9,5.8-3.6,5.2-8c-0.5-3.7-4-4.9-10-4.9
		c-2.4,0-1.8,2.1-1.9,5.3C78.1,17.9,78.1,19.3,78.1,19.6z"/>
	<path id="XMLID_1_" fill="#FFFFFF" d="M0.4,53.8c-0.3,0-0.5-0.4-0.4-0.7c0.6-1.3,2.6-3.7,3.2-5c1.1-2.3,2.6-4.1,3.7-6.4
		c1.5-2.9,3.3-5.7,4.8-8.6c1.1-2.1,2.2-4.1,3.3-6.2c1-1.8,2.1-3.6,3.2-5.4c1.3-2.1,2.4-4.3,3.7-6.4c1-1.6,1.4-3.9,2.4-5.5
		c1.4-2.4,2.8-4.9,4.2-7.4c0.2-0.3,0.6-0.3,0.7,0c0.6,1.1,1.3,2.3,1.9,3.4c1.3,2.6,2.6,5.2,3.9,7.8c1.2,2.4,2.2,5.3,3.5,7.7
		c1.1,2.1,2.1,4.7,3,6.9c0.7,1.6,1,2.7,1.7,4.4c0.8,1.9,1.8,4.1,2.6,6c0.6,1.7,1.7,2.8,2.3,4.4c0.7,1.8,1.4,3.6,2.2,5.4
		c0.4,1,2.1,4.6,2.5,5.7c0,0.4-1.2-0.2-1.2,0.2c-2,0.1-4,0.1-6.1,0.2c-1.3,0-2.5,0.1-3.8,0.2c-1,0-1.9,0-2.9,0c-1-2.3-2-6.3-3-8.6
		c-0.1-0.3-0.4-0.5-0.7-0.6c-0.5-0.1-1.1-0.2-1.6-0.2c-3.2,0-6.4,0-9.7,0.1c-1.4,0-2.9,0-4.3,0.1c-0.4,0-1,0.3-1.2,0.7
		c-0.9,1.7-2.9,4.7-3.7,6.5c-0.1,0.3-0.4,0.6-0.6,0.7c-0.7,0.2-1.5,0.4-2.3,0.4c-2.8,0.1-5.6,0.2-8.5,0.2C2.5,54,1.5,53.9,0.4,53.8z
		 M23.6,36.6c0.7,0.1,1,0.3,1.4,0.3c1.9,0,3.9,0.1,5.8,0.1c1.3,0,1.4-0.3,0.8-1.4c-1-2.1-2-4.2-3-6.3c-0.2-0.4-0.4-0.7-0.6-1.1
		c-0.1-0.1-0.2-0.1-0.3,0C26.4,30.9,25,33.7,23.6,36.6z"/>
</g>
</svg>
